<?xml version="1.0" standalone="no"?>
<!DOCTYPE svg PUBLIC "-//W3C//DTD SVG 20010904//EN"
 "http://www.w3.org/TR/2001/REC-SVG-20010904/DTD/svg10.dtd">
<svg version="1.0" xmlns="http://www.w3.org/2000/svg"
 width="200.000000pt" height="200.000000pt" viewBox="0 0 200.000000 200.000000"
 preserveAspectRatio="xMidYMid meet">
<metadata>
Created by potrace 1.11, written by Peter Selinger 2001-2013
</metadata>
<g transform="translate(0.000000,200.000000) scale(0.100000,-0.100000)"
fill="#000000" stroke="none">
<path d="M618 1604 c-4 -3 -25 -8 -49 -10 -49 -6 -364 -70 -364 -74 0 -1 -11
-3 -25 -4 -33 -4 -92 -16 -99 -21 -4 -2 -6 -63 -6 -137 1 -110 4 -132 16 -130
7 2 19 9 24 15 6 7 17 12 25 12 8 -1 20 1 25 4 13 7 31 11 78 15 39 4 42 0 37
-54 -2 -14 -5 -110 -7 -215 -2 -104 -8 -192 -12 -195 -5 -3 -47 -5 -93 -4 -45
1 -85 -2 -88 -6 -3 -5 -5 -66 -4 -137 l1 -128 906 -3 907 -2 -2 532 -3 533
-30 0 c-16 0 -36 4 -42 8 -7 5 -13 5 -13 0 0 -10 -71 -10 -88 1 -7 4 -12 4
-12 -1 0 -4 -20 -8 -45 -8 -25 0 -45 3 -45 8 0 4 -5 5 -12 1 -17 -11 -148 -11
-148 0 0 5 -8 2 -17 -5 -14 -12 -16 -12 -8 0 6 10 4 12 -5 6 -18 -11 -100 -13
-100 -3 0 5 -6 6 -12 2 -7 -5 -22 -8 -33 -8 -11 0 -26 3 -33 8 -6 4 -12 4 -12
-1 0 -4 -18 -8 -40 -8 -22 0 -40 4 -40 8 0 5 -6 5 -12 0 -19 -11 -168 -10
-168 2 0 7 -3 7 -8 0 -8 -12 -32 -13 -49 -2 -7 5 -13 4 -13 0 0 -12 -84 -10
-92 2 -5 6 -8 6 -8 -1 0 -12 -29 -12 -48 0 -6 4 -12 4 -12 -1 0 -4 -20 -8 -45
-8 -25 0 -45 4 -45 9 0 4 -8 2 -17 -5 -11 -10 -14 -10 -9 -1 7 12 4 16 -6 6z"/>
</g>
</svg>
